<svg width="40" height="40" viewBox="0 0 40 40" fill="none" xmlns="http://www.w3.org/2000/svg">
<circle cx="20" cy="20" r="20" fill="#EDFFFC"/>
<path d="M25 10H15C12.2386 10 10 12.2386 10 15V25C10 27.7614 12.2386 30 15 30H25C27.7614 30 30 27.7614 30 25V15C30 12.2386 27.7614 10 25 10Z" stroke="#02897A" stroke-width="2" stroke-linecap="round" stroke-linejoin="round"/>
<path d="M23.9997 19.3701C24.1231 20.2023 23.981 21.0523 23.5935 21.7991C23.206 22.5459 22.5929 23.1515 21.8413 23.5297C21.0898 23.908 20.2382 24.0397 19.4075 23.906C18.5768 23.7723 17.8095 23.3801 17.2145 22.7852C16.6196 22.1903 16.2274 21.4229 16.0938 20.5923C15.9601 19.7616 16.0918 18.91 16.47 18.1584C16.8483 17.4069 17.4539 16.7938 18.2007 16.4063C18.9475 16.0188 19.7975 15.8766 20.6297 16.0001C21.4786 16.1259 22.2646 16.5215 22.8714 17.1284C23.4782 17.7352 23.8738 18.5211 23.9997 19.3701Z" stroke="#02897A" stroke-width="2" stroke-linecap="round" stroke-linejoin="round"/>
<path d="M25.5 14.5H25.51" stroke="#02897A" stroke-width="2" stroke-linecap="round" stroke-linejoin="round"/>
</svg>
